<?xml version="1.0" standalone="no"?>
<!DOCTYPE svg PUBLIC "-//W3C//DTD SVG 20010904//EN"
 "http://www.w3.org/TR/2001/REC-SVG-20010904/DTD/svg10.dtd">
<svg version="1.0" xmlns="http://www.w3.org/2000/svg"
 width="1024.000000pt" height="1024.000000pt" viewBox="0 0 1024.000000 1024.000000"
 preserveAspectRatio="xMidYMid meet">

<g transform="translate(0.000000,1024.000000) scale(0.100000,-0.100000)"
fill="#ffffff" stroke="none">
<path d="M3165 6721 c-6 -5 -27 -14 -48 -21 -25 -8 -41 -21 -48 -37 -5 -14 -9
-237 -9 -524 l0 -499 36 -15 c20 -8 51 -15 69 -15 l32 0 -1 560 c-1 384 -4
560 -11 560 -6 0 -15 -4 -20 -9z"/>
<path d="M5453 6699 l-43 -30 -2 -207 c-3 -243 2 -845 7 -851 2 -2 29 0 60 4
l55 6 0 523 c0 288 -3 538 -6 555 -8 38 -18 38 -71 0z"/>
<path d="M744 5068 c5 -1375 11 -1933 20 -1933 0 0 226 2 501 5 l500 5 3 32 3
32 67 3 c37 2 -162 3 -443 3 l-510 0 -3 1748 -2 1747 -71 0 -72 0 7 -1642z"/>
<path d="M6866 6564 c-78 -15 -128 -44 -201 -118 -66 -66 -102 -129 -131 -226
-22 -76 -22 -93 -25 -537 -1 -252 1 -476 5 -498 23 -118 86 -229 161 -281 17
-11 51 -35 76 -53 25 -18 63 -36 85 -41 21 -6 158 -17 304 -25 312 -18 591
-39 785 -60 77 -8 200 -20 274 -25 74 -6 137 -13 141 -15 3 -2 127 -15 276
-29 458 -44 505 -49 526 -62 4 -3 8 -113 8 -245 0 -206 2 -239 15 -239 16 0
19 -9 9 -34 -5 -12 -10 -13 -25 -5 -13 7 -19 6 -19 -1 0 -8 -52 -9 -89 -1 -2
1 4 10 14 21 17 19 17 19 -8 7 -14 -6 -23 -15 -21 -19 3 -5 0 -8 -5 -8 -18 0
-12 17 12 33 20 14 -34 16 -606 16 -345 0 -625 -4 -622 -9 3 -4 -9 -3 -26 3
-25 10 -33 9 -42 -3 -7 -8 -19 -16 -27 -18 -8 -2 -16 -8 -18 -13 -2 -5 -11 -9
-20 -8 -11 0 -12 2 -4 6 6 2 12 10 12 15 0 6 -3 8 -7 5 -3 -4 -11 -3 -17 2
-18 14 -56 20 -56 9 0 -6 -6 -6 -14 1 -11 10 -21 9 -44 -3 -24 -12 -32 -13
-36 -3 -3 6 -3 2 0 -10 3 -14 1 -23 -6 -23 -6 0 -9 4 -5 9 3 5 -2 17 -11 26
-13 13 -19 13 -31 3 -13 -10 -13 -14 3 -25 19 -14 7 -18 -14 -5 -7 5 -10 15
-7 23 5 13 -61 15 -500 18 -278 1 -505 -1 -505 -6 1 -31 102 -415 159 -598
l28 -90 1274 -3 c1437 -2 1333 -8 1476 76 150 88 231 194 298 388 45 131 50
182 50 489 -1 336 -16 428 -99 608 -20 42 -36 81 -36 86 0 15 -79 78 -137 111
-78 44 -171 77 -254 89 -130 19 -701 74 -994 96 -49 4 -153 16 -229 26 -77 10
-168 19 -203 19 -35 0 -127 7 -205 15 -79 8 -207 19 -285 23 -79 5 -146 12
-150 16 -10 10 -17 265 -9 320 4 25 15 55 26 68 l18 23 1324 5 c1170 4 1322 7
1319 20 -53 178 -98 281 -175 398 -49 76 -64 90 -156 154 -96 68 -189 103
-302 117 -151 17 -2210 14 -2302 -5z m904 -2464 c-8 -5 -19 -10 -25 -10 -5 0
-3 5 5 10 8 5 20 10 25 10 6 0 3 -5 -5 -10z m-160 -26 c0 -2 -12 -4 -27 -4
-21 0 -24 3 -14 9 13 8 41 5 41 -5z m205 -2 c-3 -3 -11 0 -18 7 -9 10 -8 11 6
5 10 -3 15 -9 12 -12z m-72 1 c-7 -2 -19 -2 -25 0 -7 3 -2 5 12 5 14 0 19 -2
13 -5z"/>
<path d="M1070 5002 c0 -1507 1 -1570 18 -1585 16 -15 54 -17 330 -17 l312 0
0 695 0 695 1920 0 1920 0 0 325 0 325 -1920 0 -1920 0 -2 563 -3 562 -327 3
-328 2 0 -1568z"/>
<path d="M3370 6095 l0 -475 333 2 332 3 3 473 2 472 -335 0 -335 0 0 -475z"/>
<path d="M5730 4995 l0 -1575 325 0 325 0 0 214 c0 171 -4 233 -19 307 -11 52
-21 117 -23 144 -3 45 -1 50 20 53 l22 3 0 441 c0 389 -2 447 -17 502 -16 55
-18 116 -18 591 0 469 2 539 18 607 10 47 17 118 17 183 l0 105 -325 0 -325 0
0 -1575z"/>
<path d="M3395 4598 c-3 -7 -4 -283 -3 -613 l3 -600 325 0 325 0 0 612 0 613
-323 0 c-249 0 -324 -3 -327 -12z"/>
<path d="M3045 4583 c21 -50 24 -146 25 -700 0 -444 3 -604 12 -609 6 -4 8 -3
4 4 -3 6 -2 13 4 17 5 3 10 0 10 -8 0 -7 7 -14 15 -14 8 0 15 4 15 9 0 4 9 8
19 8 11 0 22 4 25 9 3 5 16 7 28 3 l21 -5 -6 438 c-4 241 -7 534 -7 652 l0
213 -86 0 c-78 0 -85 -2 -79 -17z"/>
<path d="M4220 4573 l0 -28 582 3 c536 2 582 4 594 20 12 16 13 16 20 -2 4
-10 4 -89 1 -175 -4 -86 -10 -403 -14 -705 l-6 -549 649 6 c700 7 1374 14
2288 22 549 5 708 13 730 35 7 7 -69 10 -214 10 -722 0 -2826 11 -3047 16
l-263 6 0 684 0 684 -660 0 -660 0 0 -27z"/>
<path d="M10080 80 l0 -80 80 0 80 0 0 80 0 80 -80 0 -80 0 0 -80z"/>
</g>
</svg>
